PathFileType	4	(X/Y/Z)	Patient4_TMGait_0pt4_03_right_39.trc.trc
DataRate	CameraRate	NumFrames	NumMarkers	Units	OrigDataRate	OrigDataStartFrame	OrigNumFrames
75.268817204301	75.268817204301	4	33	mm	75.268817204301	36	       141
Frame#	Time	Sacral			L.Shoulder			Chest			R.Shoulder			Neck			R.ASIS			L.ASIS			R.Thigh.Superior			R.Thigh.Lateral			R.Thigh.Inferior			R.Patella			L.Thigh.Superior			L.Thigh.Lateral			L.Thigh.Inferior			L.Patella			L.Shank.Superior			L.Shank.Lateral			L.Shank.Inferior			R.Shank.Superior			R.Shank.Lateral			R.Shank.Inferior			R.Heel			R.Midfoot.Superior			R.Midfoot.Lateral			R.Toe			L.Heel			L.Midfoot.Lateral			L.Midfoot.Superior			L.Toe			L.Elbow			L.Wrist			R.Elbow			R.Wrist			
		X1	Y1	Z1	X2	Y2	Z2	X3	Y3	Z3	X4	Y4	Z4	X5	Y5	Z5	X6	Y6	Z6	X7	Y7	Z7	X8	Y8	Z8	X9	Y9	Z9	X10	Y10	Z10	X11	Y11	Z11	X12	Y12	Z12	X13	Y13	Z13	X14	Y14	Z14	X15	Y15	Z15	X16	Y16	Z16	X17	Y17	Z17	X18	Y18	Z18	X19	Y19	Z19	X20	Y20	Z20	X21	Y21	Z21	X22	Y22	Z22	X23	Y23	Z23	X24	Y24	Z24	X25	Y25	Z25	X26	Y26	Z26	X27	Y27	Z27	X28	Y28	Z28	X29	Y29	Z29	X30	Y30	Z30	X31	Y31	Z31	X32	Y32	Z32	X33	Y33	Z33	

36	51.515000000000	891.262909635946	999.912192422659	485.551012414458	1063.836833271667	1433.526994353579	311.056352964957	1158.247047280628	1371.761078964375	479.369531337913	1058.955467520721	1438.983716288583	647.905020868545	1029.107378567666	1494.717639950813	467.878525517212	1119.751148264174	940.456106646008	611.801007941094	1114.617725744986	967.897964437724	337.702812873364	1179.445804536224	748.383508383580	576.625617948449	1111.403036678521	633.398910255566	640.946947208888	1192.069070161138	587.926942250692	559.070918576617	1201.552894676572	500.269018765259	567.022076704708	1138.276542079774	740.049501017817	353.261220445822	1036.234157892977	633.519417099271	286.376036713338	1115.144486873887	543.822189276604	340.664205670660	1106.012547447916	464.994716692998	338.740120574303	1051.089611882700	404.174245299869	332.421384715482	923.214027468369	331.378234049660	284.202963385949	938.373715403585	202.894105915246	342.321474687770	1178.407418310447	409.404920177358	577.634299788246	1115.068666087046	304.035212995342	645.334460299255	1159.154570591903	209.325640381441	583.237424913173	1032.648769515296	42.637966291780	564.078951726990	1203.539396883684	98.188997366404	591.119416149836	1119.169127126004	37.421114022567	635.235115510635	1326.023402476087	48.631949936115	614.656064944383	772.464233786981	84.910793919888	383.648920701008	840.565203021633	59.444545040753	303.733212722642	935.753884615906	103.764388568984	325.217979888574	1046.847028131070	36.465927568204	297.757275468851	1083.617672316889	1088.300367932127	175.074791874594	1280.238101223347	917.061760130585	152.080997015536	980.948512858353	1099.391512363778	764.629053895557	1030.197019347809	842.065356480010	766.424335216369	
37	51.528285714286	891.096495167714	1000.441881611641	489.965684703057	1062.156220990875	1434.614160643062	314.977066766243	1158.077754633707	1372.390670799861	482.256670775311	1060.373956212475	1439.161769782271	651.779281248727	1028.798604266016	1495.335887676091	472.161820332380	1120.477706910285	941.107040167797	614.317209986037	1112.988364008321	968.441283641014	340.596077027023	1178.079290890069	747.673195182666	579.658438002729	1108.581371341860	633.420209231914	643.551138057103	1188.734817906657	587.363842378489	561.509564633725	1197.310868849604	499.838964085485	569.008705990856	1142.760733658529	742.439535837756	355.914077188573	1045.110737882319	633.451608348374	288.018889213885	1127.218788621481	545.411805968867	341.817879358030	1119.074255620626	465.092998276866	338.765940422231	1061.658337407080	404.498465291000	332.716998710790	931.146416626729	336.575294061840	284.584324903987	941.936514359980	207.485066616783	341.797690813950	1174.007819916431	409.137796493806	579.405805842398	1110.404490747512	303.652466922709	646.510585612969	1154.279801675370	209.101050476822	584.018448024309	1027.454998548592	42.573304385498	564.191635997985	1198.396985422825	98.013908253448	591.557608411512	1113.981545494336	37.358668878332	635.387625453232	1320.889866149167	48.458866814451	614.864373601863	771.538277589013	97.524934967069	382.729671734471	838.138814100175	67.734831296175	303.207227442377	935.361213932913	107.138568247709	324.250316806312	1041.729251338292	35.484062378380	297.876768213004	1080.026820810264	1088.674886806299	180.381142429592	1267.774669673978	907.473076991706	157.283114894759	990.518964912003	1097.649800602938	770.108008188534	1051.425864470153	842.852967563258	771.178189345672	
38	51.541571428571	890.751359398510	1000.897951980730	494.355931473880	1060.224546880326	1435.593015888968	318.796443931753	1157.805291266988	1372.892401649282	484.939377351005	1061.902786384021	1439.245077849205	655.536953689069	1028.433428426552	1495.870153543106	476.367626312683	1121.008160672275	941.715036459270	616.682956517814	1111.064149243696	968.790547338610	343.325701636633	1176.461808164585	746.927307265108	582.795879004750	1105.416092780290	633.407515113853	646.181341592626	1185.135841608711	586.790141467238	564.068225431610	1192.777254650075	499.444818891564	571.112600520039	1147.307153700053	745.113327806364	358.473224129327	1054.469697066467	633.696168257839	289.416706287919	1139.708757950736	547.545657019131	342.876083962462	1132.728390208544	465.836141400821	338.841923687586	1073.004337919348	405.300833543513	332.970689255478	940.096923649960	342.304425815805	284.760522605316	946.384234610584	212.817250259388	341.248704560543	1169.383214372314	408.895269577608	581.256534314359	1105.562733403715	303.260554264223	647.780086977010	1149.297665949292	208.901626876883	584.849659195064	1022.208521949801	42.528280925721	564.294708090317	1193.216229201770	97.803424771997	591.943593350958	1108.744880568871	37.292733292272	635.529909438149	1315.720450148451	48.205149053669	615.053140585738	771.610088279689	111.494474442403	381.713787066527	836.520951408463	77.317558045090	302.595182395905	935.720522580384	111.348792224912	323.350188246372	1036.938843843015	34.522461459000	298.045831871003	1076.114820627832	1088.942831142402	185.620683790973	1254.370230509363	898.087824888710	162.596456767968	1000.524714948737	1096.086586324150	775.593775218859	1073.517810893350	844.522653176387	775.617820048878	
39	51.554857142857	890.220511964147	1001.271589087546	498.660540165882	1058.093890449685	1436.432987379061	322.477960272344	1157.435131132124	1373.248377017169	487.409388138148	1063.497055586929	1439.221141766412	659.144756118921	1028.028947671080	1496.309029854720	480.446085186549	1121.329472424804	942.266115295440	618.906533698628	1108.937439255243	968.955627245124	345.870852184076	1174.659594426469	746.199154089637	585.928242286619	1102.091651865206	633.385110958718	648.802814717693	1181.403116250114	586.231349192429	566.664331164714	1188.096413705056	499.088582147240	573.288301186721	1151.769998680614	748.066795913873	360.914649038398	1064.042474284845	634.327301141396	290.582075736231	1152.282491765446	550.273890507343	343.834801386928	1146.658893463760	467.292106014404	338.970795598904	1084.867923806053	406.634967758604	333.185194769565	949.833720813105	348.477941106610	284.771161255124	951.632370639695	218.785135151739	340.712408969595	1164.657957981005	408.672239197774	583.146115935528	1100.656659603821	302.875599725049	649.141564080201	1144.267869557719	208.723516930938	585.715708219096	1016.916936349173	42.507481715647	564.400419335956	1188.006703968347	97.581825145411	592.289477141347	1103.464748681986	37.228480327635	635.675122642105	1310.519409823689	47.880705211274	615.233107639111	772.753688187083	126.368762105070	380.645486922077	835.865354968502	87.926832625856	301.923095040148	936.893754409512	116.363601011722	322.557420725563	1032.750664828596	33.674538006874	298.240456605689	1071.775450850171	1089.052492456737	190.784519832618	1240.068410639161	889.038898059295	168.002905105181	1010.946705281231	1094.704871106144	781.023028303694	1096.353700862087	847.136152054209	779.663157565829	
